<svg width="360" height="470" viewBox="0 0 360 470" fill="none" xmlns="http://www.w3.org/2000/svg">
<circle cx="180.571" cy="446.886" r="6.85714" fill="#110E43"/>
<circle cx="180.571" cy="360.029" r="6.85714" fill="#110E43"/>
<circle cx="141.714" cy="277.743" r="6.85714" fill="#110E43"/>
<circle cx="141.714" cy="172.6" r="6.85714" fill="#110E43"/>
<circle cx="222.857" cy="277.743" r="6.85714" fill="#110E43"/>
<circle cx="222.857" cy="172.6" r="6.85714" fill="#110E43"/>
<circle cx="180.571" cy="109.743" r="6.85714" fill="#110E43"/>
<circle cx="302.857" cy="360.029" r="6.85714" fill="#110E43"/>
<circle cx="302.857" cy="258.314" r="6.85714" fill="#110E43"/>
<circle cx="58.2857" cy="360.029" r="6.85714" fill="#110E43"/>
<circle cx="58.2857" cy="258.314" r="6.85714" fill="#110E43"/>
<rect x="0.5" y="10.6409" width="359" height="447.989" stroke="#CFCFDF"/>
<rect x="99.6011" y="10.6409" width="160.798" height="67.764" stroke="#CFCFDF"/>
<rect x="144.095" y="10.6409" width="71.809" height="23.2697" stroke="#CFCFDF"/>
<rect x="163.929" y="0.528564" width="32.1429" height="10.4286" stroke="#CFCFDF"/>
<circle cx="180" cy="54.6353" r="4.04494" fill="#CFCFDF"/>
<path d="M197.214 77.7429C197.214 79.6148 196.775 81.4712 195.918 83.2071C195.06 84.9434 193.8 86.5272 192.205 87.8654C190.609 89.2037 188.71 90.2689 186.615 90.9968C184.52 91.7247 182.272 92.1001 180 92.1001C177.728 92.1001 175.48 91.7247 173.385 90.9968C171.29 90.2689 169.391 89.2037 167.795 87.8654C166.2 86.5272 164.94 84.9434 164.082 83.2071C163.225 81.4712 162.786 79.6148 162.786 77.7429" stroke="#CFCFDF"/>
<rect x="260.399" y="458.63" width="160.798" height="67.764" transform="rotate(-180 260.399 458.63)" stroke="#CFCFDF"/>
<rect x="215.905" y="458.63" width="71.809" height="23.2697" transform="rotate(-180 215.905 458.63)" stroke="#CFCFDF"/>
<rect x="196.071" y="469.243" width="32.1429" height="10.4286" transform="rotate(-180 196.071 469.243)" stroke="#CFCFDF"/>
<circle cx="180" cy="414.635" r="4.04494" transform="rotate(-180 180 414.635)" fill="#CFCFDF"/>
<path d="M162.786 391.457C162.786 389.507 163.227 387.574 164.086 385.768C164.945 383.961 166.207 382.315 167.802 380.925C169.399 379.534 171.297 378.429 173.391 377.673C175.484 376.918 177.73 376.529 180 376.529C182.269 376.529 184.515 376.918 186.609 377.673C188.703 378.429 190.601 379.534 192.197 380.925C193.793 382.315 195.055 383.961 195.914 385.768C196.773 387.574 197.214 389.507 197.214 391.457" stroke="#CFCFDF"/>
<path d="M2.02258 244.747L357.978 244.747" stroke="#CFCFDF" stroke-linecap="round" stroke-linejoin="round"/>
<circle cx="180" cy="245.171" r="32.0714" stroke="#CFCFDF"/>
</svg>
