<svg width="16" height="16" viewBox="0 0 16 16" fill="none" xmlns="http://www.w3.org/2000/svg">
<path d="M8.00016 1.33344C4.32683 1.33344 1.3335 4.32677 1.3335 8.0001C1.3335 11.6734 4.32683 14.6668 8.00016 14.6668C11.6735 14.6668 14.6668 11.6734 14.6668 8.0001C14.6668 4.32677 11.6735 1.33344 8.00016 1.33344ZM10.2402 9.53344C10.4335 9.72677 10.4335 10.0468 10.2402 10.2401C10.1402 10.3401 10.0135 10.3868 9.88683 10.3868C9.76016 10.3868 9.6335 10.3401 9.5335 10.2401L8.00016 8.70677L6.46683 10.2401C6.36683 10.3401 6.24016 10.3868 6.1135 10.3868C5.98683 10.3868 5.86016 10.3401 5.76016 10.2401C5.56683 10.0468 5.56683 9.72677 5.76016 9.53344L7.2935 8.0001L5.76016 6.46677C5.56683 6.27344 5.56683 5.95344 5.76016 5.7601C5.9535 5.56677 6.2735 5.56677 6.46683 5.7601L8.00016 7.29344L9.5335 5.7601C9.72683 5.56677 10.0468 5.56677 10.2402 5.7601C10.4335 5.95344 10.4335 6.27344 10.2402 6.46677L8.70683 8.0001L10.2402 9.53344Z" fill="#FF4C41"/>
</svg>
