<svg width="16" height="16" viewBox="0 0 16 16" fill="none" xmlns="http://www.w3.org/2000/svg">
<path d="M10.7933 1.33337H5.20668C2.78001 1.33337 1.33334 2.78004 1.33334 5.20671V10.7867C1.33334 13.22 2.78001 14.6667 5.20668 14.6667H10.7867C13.2133 14.6667 14.66 13.22 14.66 10.7934V5.20671C14.6667 2.78004 13.22 1.33337 10.7933 1.33337ZM11.9 9.40004C11.8733 9.46004 11.84 9.51337 11.7933 9.56004L9.76668 11.5867C9.66668 11.6867 9.54001 11.7334 9.41334 11.7334C9.28668 11.7334 9.16001 11.6867 9.06001 11.5867C8.86668 11.3934 8.86668 11.0734 9.06001 10.88L10.2333 9.70671H4.56668C4.29334 9.70671 4.06668 9.48004 4.06668 9.20671C4.06668 8.93337 4.29334 8.70671 4.56668 8.70671H11.44C11.5067 8.70671 11.5667 8.72004 11.6333 8.74671C11.7533 8.80004 11.8533 8.89337 11.9067 9.02004C11.9467 9.14004 11.9467 9.28004 11.9 9.40004ZM11.4333 7.28671H4.56668C4.50001 7.28671 4.44001 7.27337 4.37334 7.24671C4.25334 7.19337 4.15334 7.10004 4.10001 6.97337C4.04668 6.85337 4.04668 6.71337 4.10001 6.59337C4.12668 6.53337 4.16001 6.48004 4.20668 6.43337L6.23334 4.40671C6.42668 4.21337 6.74668 4.21337 6.94001 4.40671C7.13334 4.60004 7.13334 4.92004 6.94001 5.11337L5.77334 6.28671H11.44C11.7133 6.28671 11.94 6.51337 11.94 6.78671C11.94 7.06004 11.7133 7.28671 11.4333 7.28671Z" fill="#00F287"/>
</svg>
