<svg width="21" height="20" viewBox="0 0 21 20" fill="none" xmlns="http://www.w3.org/2000/svg">
<path d="M19.67 4.94996C19.03 2.77996 17.22 0.969965 15.05 0.329965C13.4 -0.150035 12.26 -0.110035 11.47 0.479965C10.52 1.18996 10.41 2.46997 10.41 3.37997V5.86996C10.41 8.32996 11.53 9.57996 13.73 9.57996H16.6C17.5 9.57996 18.79 9.46997 19.5 8.51997C20.11 7.73997 20.16 6.59996 19.67 4.94996Z" fill="white"/>
<path d="M16.91 11.36C16.65 11.06 16.27 10.89 15.88 10.89H12.3C10.54 10.89 9.11002 9.46003 9.11002 7.70003V4.12003C9.11002 3.73003 8.94002 3.35003 8.64002 3.09003C8.35002 2.83003 7.95002 2.71003 7.57002 2.76003C5.22002 3.06003 3.06002 4.35003 1.65002 6.29003C0.230021 8.24003 -0.28998 10.62 0.16002 13C0.81002 16.44 3.56002 19.19 7.01002 19.84C7.56002 19.95 8.11002 20 8.66002 20C10.47 20 12.22 19.44 13.71 18.35C15.65 16.94 16.94 14.78 17.24 12.43C17.29 12.04 17.17 11.65 16.91 11.36Z" fill="white"/>
</svg>